<?xml version="1.0" encoding="UTF-8"?>
<svg xmlns="http://www.w3.org/2000/svg" width="64" height="64" viewBox="0 0 64 64" shape-rendering="crispEdges">
  <title>Pixtorio</title>
  <rect x="48" y="8" width="12" height="1" fill="#202b30"></rect>
  <rect x="48" y="9" width="12" height="1" fill="#202b30"></rect>
  <rect x="48" y="10" width="2" height="1" fill="#202b30"></rect>
  <rect x="50" y="10" width="8" height="1" fill="#ffb198"></rect>
  <rect x="58" y="10" width="2" height="1" fill="#202b30"></rect>
  <rect x="48" y="11" width="2" height="1" fill="#202b30"></rect>
  <rect x="50" y="11" width="8" height="1" fill="#ffb198"></rect>
  <rect x="58" y="11" width="2" height="1" fill="#202b30"></rect>
  <rect x="16" y="12" width="24" height="1" fill="#202b30"></rect>
  <rect x="48" y="12" width="2" height="1" fill="#202b30"></rect>
  <rect x="50" y="12" width="8" height="1" fill="#ff7469"></rect>
  <rect x="58" y="12" width="2" height="1" fill="#202b30"></rect>
  <rect x="16" y="13" width="24" height="1" fill="#202b30"></rect>
  <rect x="48" y="13" width="2" height="1" fill="#202b30"></rect>
  <rect x="50" y="13" width="8" height="1" fill="#ff7469"></rect>
  <rect x="58" y="13" width="2" height="1" fill="#202b30"></rect>
  <rect x="14" y="14" width="2" height="1" fill="#202b30"></rect>
  <rect x="16" y="14" width="24" height="1" fill="#8cf1cd"></rect>
  <rect x="40" y="14" width="4" height="1" fill="#202b30"></rect>
  <rect x="48" y="14" width="2" height="1" fill="#202b30"></rect>
  <rect x="50" y="14" width="8" height="1" fill="#ff7469"></rect>
  <rect x="58" y="14" width="2" height="1" fill="#202b30"></rect>
  <rect x="14" y="15" width="2" height="1" fill="#202b30"></rect>
  <rect x="16" y="15" width="24" height="1" fill="#8cf1cd"></rect>
  <rect x="40" y="15" width="4" height="1" fill="#202b30"></rect>
  <rect x="48" y="15" width="2" height="1" fill="#202b30"></rect>
  <rect x="50" y="15" width="8" height="1" fill="#ff7469"></rect>
  <rect x="58" y="15" width="2" height="1" fill="#202b30"></rect>
  <rect x="12" y="16" width="2" height="1" fill="#202b30"></rect>
  <rect x="14" y="16" width="2" height="1" fill="#8cf1cd"></rect>
  <rect x="16" y="16" width="2" height="1" fill="#38ccaf"></rect>
  <rect x="18" y="16" width="16" height="1" fill="#c9ffe8"></rect>
  <rect x="34" y="16" width="6" height="1" fill="#38ccaf"></rect>
  <rect x="40" y="16" width="4" height="1" fill="#8cf1cd"></rect>
  <rect x="44" y="16" width="2" height="1" fill="#202b30"></rect>
  <rect x="48" y="16" width="2" height="1" fill="#202b30"></rect>
  <rect x="50" y="16" width="8" height="1" fill="#b84454"></rect>
  <rect x="58" y="16" width="2" height="1" fill="#202b30"></rect>
  <rect x="12" y="17" width="2" height="1" fill="#202b30"></rect>
  <rect x="14" y="17" width="2" height="1" fill="#8cf1cd"></rect>
  <rect x="16" y="17" width="2" height="1" fill="#38ccaf"></rect>
  <rect x="18" y="17" width="16" height="1" fill="#c9ffe8"></rect>
  <rect x="34" y="17" width="6" height="1" fill="#38ccaf"></rect>
  <rect x="40" y="17" width="4" height="1" fill="#8cf1cd"></rect>
  <rect x="44" y="17" width="2" height="1" fill="#202b30"></rect>
  <rect x="48" y="17" width="2" height="1" fill="#202b30"></rect>
  <rect x="50" y="17" width="8" height="1" fill="#b84454"></rect>
  <rect x="58" y="17" width="2" height="1" fill="#202b30"></rect>
  <rect x="12" y="18" width="2" height="1" fill="#202b30"></rect>
  <rect x="14" y="18" width="28" height="1" fill="#38ccaf"></rect>
  <rect x="42" y="18" width="2" height="1" fill="#159c8e"></rect>
  <rect x="44" y="18" width="16" height="1" fill="#202b30"></rect>
  <rect x="12" y="19" width="2" height="1" fill="#202b30"></rect>
  <rect x="14" y="19" width="28" height="1" fill="#38ccaf"></rect>
  <rect x="42" y="19" width="2" height="1" fill="#159c8e"></rect>
  <rect x="44" y="19" width="16" height="1" fill="#202b30"></rect>
  <rect x="12" y="20" width="2" height="1" fill="#202b30"></rect>
  <rect x="14" y="20" width="2" height="1" fill="#38ccaf"></rect>
  <rect x="16" y="20" width="2" height="1" fill="#8cf1cd"></rect>
  <rect x="18" y="20" width="26" height="1" fill="#38ccaf"></rect>
  <rect x="44" y="20" width="2" height="1" fill="#8cf1cd"></rect>
  <rect x="46" y="20" width="2" height="1" fill="#136b69"></rect>
  <rect x="48" y="20" width="2" height="1" fill="#202b30"></rect>
  <rect x="12" y="21" width="2" height="1" fill="#202b30"></rect>
  <rect x="14" y="21" width="2" height="1" fill="#38ccaf"></rect>
  <rect x="16" y="21" width="2" height="1" fill="#8cf1cd"></rect>
  <rect x="18" y="21" width="26" height="1" fill="#38ccaf"></rect>
  <rect x="44" y="21" width="2" height="1" fill="#8cf1cd"></rect>
  <rect x="46" y="21" width="2" height="1" fill="#136b69"></rect>
  <rect x="48" y="21" width="2" height="1" fill="#202b30"></rect>
  <rect x="12" y="22" width="2" height="1" fill="#202b30"></rect>
  <rect x="14" y="22" width="2" height="1" fill="#38ccaf"></rect>
  <rect x="16" y="22" width="2" height="1" fill="#8cf1cd"></rect>
  <rect x="18" y="22" width="8" height="1" fill="#38ccaf"></rect>
  <rect x="26" y="22" width="12" height="1" fill="#159c8e"></rect>
  <rect x="38" y="22" width="6" height="1" fill="#38ccaf"></rect>
  <rect x="44" y="22" width="2" height="1" fill="#159c8e"></rect>
  <rect x="46" y="22" width="2" height="1" fill="#136b69"></rect>
  <rect x="48" y="22" width="2" height="1" fill="#202b30"></rect>
  <rect x="12" y="23" width="2" height="1" fill="#202b30"></rect>
  <rect x="14" y="23" width="2" height="1" fill="#38ccaf"></rect>
  <rect x="16" y="23" width="2" height="1" fill="#8cf1cd"></rect>
  <rect x="18" y="23" width="8" height="1" fill="#38ccaf"></rect>
  <rect x="26" y="23" width="12" height="1" fill="#159c8e"></rect>
  <rect x="38" y="23" width="6" height="1" fill="#38ccaf"></rect>
  <rect x="44" y="23" width="2" height="1" fill="#159c8e"></rect>
  <rect x="46" y="23" width="2" height="1" fill="#136b69"></rect>
  <rect x="48" y="23" width="2" height="1" fill="#202b30"></rect>
  <rect x="12" y="24" width="2" height="1" fill="#202b30"></rect>
  <rect x="14" y="24" width="2" height="1" fill="#38ccaf"></rect>
  <rect x="16" y="24" width="2" height="1" fill="#8cf1cd"></rect>
  <rect x="18" y="24" width="6" height="1" fill="#38ccaf"></rect>
  <rect x="24" y="24" width="2" height="1" fill="#159c8e"></rect>
  <rect x="26" y="24" width="12" height="1" fill="#136b69"></rect>
  <rect x="38" y="24" width="8" height="1" fill="#38ccaf"></rect>
  <rect x="46" y="24" width="2" height="1" fill="#8cf1cd"></rect>
  <rect x="48" y="24" width="2" height="1" fill="#136b69"></rect>
  <rect x="50" y="24" width="2" height="1" fill="#202b30"></rect>
  <rect x="12" y="25" width="2" height="1" fill="#202b30"></rect>
  <rect x="14" y="25" width="2" height="1" fill="#38ccaf"></rect>
  <rect x="16" y="25" width="2" height="1" fill="#8cf1cd"></rect>
  <rect x="18" y="25" width="6" height="1" fill="#38ccaf"></rect>
  <rect x="24" y="25" width="2" height="1" fill="#159c8e"></rect>
  <rect x="26" y="25" width="12" height="1" fill="#136b69"></rect>
  <rect x="38" y="25" width="8" height="1" fill="#38ccaf"></rect>
  <rect x="46" y="25" width="2" height="1" fill="#8cf1cd"></rect>
  <rect x="48" y="25" width="2" height="1" fill="#136b69"></rect>
  <rect x="50" y="25" width="2" height="1" fill="#202b30"></rect>
  <rect x="12" y="26" width="2" height="1" fill="#202b30"></rect>
  <rect x="14" y="26" width="2" height="1" fill="#38ccaf"></rect>
  <rect x="16" y="26" width="2" height="1" fill="#8cf1cd"></rect>
  <rect x="18" y="26" width="6" height="1" fill="#38ccaf"></rect>
  <rect x="24" y="26" width="2" height="1" fill="#159c8e"></rect>
  <rect x="26" y="26" width="12" height="1" fill="#136b69"></rect>
  <rect x="38" y="26" width="8" height="1" fill="#38ccaf"></rect>
  <rect x="46" y="26" width="2" height="1" fill="#159c8e"></rect>
  <rect x="48" y="26" width="2" height="1" fill="#136b69"></rect>
  <rect x="50" y="26" width="2" height="1" fill="#202b30"></rect>
  <rect x="12" y="27" width="2" height="1" fill="#202b30"></rect>
  <rect x="14" y="27" width="2" height="1" fill="#38ccaf"></rect>
  <rect x="16" y="27" width="2" height="1" fill="#8cf1cd"></rect>
  <rect x="18" y="27" width="6" height="1" fill="#38ccaf"></rect>
  <rect x="24" y="27" width="2" height="1" fill="#159c8e"></rect>
  <rect x="26" y="27" width="12" height="1" fill="#136b69"></rect>
  <rect x="38" y="27" width="8" height="1" fill="#38ccaf"></rect>
  <rect x="46" y="27" width="2" height="1" fill="#159c8e"></rect>
  <rect x="48" y="27" width="2" height="1" fill="#136b69"></rect>
  <rect x="50" y="27" width="2" height="1" fill="#202b30"></rect>
  <rect x="12" y="28" width="2" height="1" fill="#202b30"></rect>
  <rect x="14" y="28" width="2" height="1" fill="#38ccaf"></rect>
  <rect x="16" y="28" width="2" height="1" fill="#8cf1cd"></rect>
  <rect x="18" y="28" width="6" height="1" fill="#38ccaf"></rect>
  <rect x="24" y="28" width="2" height="1" fill="#159c8e"></rect>
  <rect x="26" y="28" width="4" height="1" fill="#136b69"></rect>
  <rect x="30" y="28" width="8" height="1" fill="#202b30"></rect>
  <rect x="38" y="28" width="8" height="1" fill="#38ccaf"></rect>
  <rect x="46" y="28" width="2" height="1" fill="#159c8e"></rect>
  <rect x="48" y="28" width="4" height="1" fill="#136b69"></rect>
  <rect x="52" y="28" width="2" height="1" fill="#202b30"></rect>
  <rect x="12" y="29" width="2" height="1" fill="#202b30"></rect>
  <rect x="14" y="29" width="2" height="1" fill="#38ccaf"></rect>
  <rect x="16" y="29" width="2" height="1" fill="#8cf1cd"></rect>
  <rect x="18" y="29" width="6" height="1" fill="#38ccaf"></rect>
  <rect x="24" y="29" width="2" height="1" fill="#159c8e"></rect>
  <rect x="26" y="29" width="4" height="1" fill="#136b69"></rect>
  <rect x="30" y="29" width="8" height="1" fill="#202b30"></rect>
  <rect x="38" y="29" width="8" height="1" fill="#38ccaf"></rect>
  <rect x="46" y="29" width="2" height="1" fill="#159c8e"></rect>
  <rect x="48" y="29" width="4" height="1" fill="#136b69"></rect>
  <rect x="52" y="29" width="2" height="1" fill="#202b30"></rect>
  <rect x="12" y="30" width="2" height="1" fill="#202b30"></rect>
  <rect x="14" y="30" width="2" height="1" fill="#38ccaf"></rect>
  <rect x="16" y="30" width="2" height="1" fill="#8cf1cd"></rect>
  <rect x="18" y="30" width="6" height="1" fill="#38ccaf"></rect>
  <rect x="24" y="30" width="2" height="1" fill="#159c8e"></rect>
  <rect x="26" y="30" width="4" height="1" fill="#136b69"></rect>
  <rect x="30" y="30" width="2" height="1" fill="#202b30"></rect>
  <rect x="36" y="30" width="2" height="1" fill="#202b30"></rect>
  <rect x="38" y="30" width="8" height="1" fill="#38ccaf"></rect>
  <rect x="46" y="30" width="2" height="1" fill="#159c8e"></rect>
  <rect x="48" y="30" width="4" height="1" fill="#136b69"></rect>
  <rect x="52" y="30" width="2" height="1" fill="#202b30"></rect>
  <rect x="12" y="31" width="2" height="1" fill="#202b30"></rect>
  <rect x="14" y="31" width="2" height="1" fill="#38ccaf"></rect>
  <rect x="16" y="31" width="2" height="1" fill="#8cf1cd"></rect>
  <rect x="18" y="31" width="6" height="1" fill="#38ccaf"></rect>
  <rect x="24" y="31" width="2" height="1" fill="#159c8e"></rect>
  <rect x="26" y="31" width="4" height="1" fill="#136b69"></rect>
  <rect x="30" y="31" width="2" height="1" fill="#202b30"></rect>
  <rect x="36" y="31" width="2" height="1" fill="#202b30"></rect>
  <rect x="38" y="31" width="8" height="1" fill="#38ccaf"></rect>
  <rect x="46" y="31" width="2" height="1" fill="#159c8e"></rect>
  <rect x="48" y="31" width="4" height="1" fill="#136b69"></rect>
  <rect x="52" y="31" width="2" height="1" fill="#202b30"></rect>
  <rect x="12" y="32" width="2" height="1" fill="#202b30"></rect>
  <rect x="14" y="32" width="2" height="1" fill="#38ccaf"></rect>
  <rect x="16" y="32" width="2" height="1" fill="#8cf1cd"></rect>
  <rect x="18" y="32" width="6" height="1" fill="#38ccaf"></rect>
  <rect x="24" y="32" width="2" height="1" fill="#159c8e"></rect>
  <rect x="26" y="32" width="4" height="1" fill="#136b69"></rect>
  <rect x="30" y="32" width="8" height="1" fill="#202b30"></rect>
  <rect x="38" y="32" width="8" height="1" fill="#38ccaf"></rect>
  <rect x="46" y="32" width="2" height="1" fill="#159c8e"></rect>
  <rect x="48" y="32" width="4" height="1" fill="#136b69"></rect>
  <rect x="52" y="32" width="2" height="1" fill="#202b30"></rect>
  <rect x="12" y="33" width="2" height="1" fill="#202b30"></rect>
  <rect x="14" y="33" width="2" height="1" fill="#38ccaf"></rect>
  <rect x="16" y="33" width="2" height="1" fill="#8cf1cd"></rect>
  <rect x="18" y="33" width="6" height="1" fill="#38ccaf"></rect>
  <rect x="24" y="33" width="2" height="1" fill="#159c8e"></rect>
  <rect x="26" y="33" width="4" height="1" fill="#136b69"></rect>
  <rect x="30" y="33" width="8" height="1" fill="#202b30"></rect>
  <rect x="38" y="33" width="8" height="1" fill="#38ccaf"></rect>
  <rect x="46" y="33" width="2" height="1" fill="#159c8e"></rect>
  <rect x="48" y="33" width="4" height="1" fill="#136b69"></rect>
  <rect x="52" y="33" width="2" height="1" fill="#202b30"></rect>
  <rect x="12" y="34" width="2" height="1" fill="#202b30"></rect>
  <rect x="14" y="34" width="2" height="1" fill="#38ccaf"></rect>
  <rect x="16" y="34" width="2" height="1" fill="#8cf1cd"></rect>
  <rect x="18" y="34" width="8" height="1" fill="#38ccaf"></rect>
  <rect x="26" y="34" width="12" height="1" fill="#8cf1cd"></rect>
  <rect x="38" y="34" width="6" height="1" fill="#38ccaf"></rect>
  <rect x="44" y="34" width="2" height="1" fill="#159c8e"></rect>
  <rect x="46" y="34" width="6" height="1" fill="#136b69"></rect>
  <rect x="52" y="34" width="2" height="1" fill="#202b30"></rect>
  <rect x="12" y="35" width="2" height="1" fill="#202b30"></rect>
  <rect x="14" y="35" width="2" height="1" fill="#38ccaf"></rect>
  <rect x="16" y="35" width="2" height="1" fill="#8cf1cd"></rect>
  <rect x="18" y="35" width="8" height="1" fill="#38ccaf"></rect>
  <rect x="26" y="35" width="12" height="1" fill="#8cf1cd"></rect>
  <rect x="38" y="35" width="6" height="1" fill="#38ccaf"></rect>
  <rect x="44" y="35" width="2" height="1" fill="#159c8e"></rect>
  <rect x="46" y="35" width="6" height="1" fill="#136b69"></rect>
  <rect x="52" y="35" width="2" height="1" fill="#202b30"></rect>
  <rect x="12" y="36" width="2" height="1" fill="#202b30"></rect>
  <rect x="14" y="36" width="2" height="1" fill="#38ccaf"></rect>
  <rect x="16" y="36" width="2" height="1" fill="#8cf1cd"></rect>
  <rect x="18" y="36" width="24" height="1" fill="#38ccaf"></rect>
  <rect x="42" y="36" width="4" height="1" fill="#159c8e"></rect>
  <rect x="46" y="36" width="6" height="1" fill="#136b69"></rect>
  <rect x="52" y="36" width="2" height="1" fill="#202b30"></rect>
  <rect x="12" y="37" width="2" height="1" fill="#202b30"></rect>
  <rect x="14" y="37" width="2" height="1" fill="#38ccaf"></rect>
  <rect x="16" y="37" width="2" height="1" fill="#8cf1cd"></rect>
  <rect x="18" y="37" width="24" height="1" fill="#38ccaf"></rect>
  <rect x="42" y="37" width="4" height="1" fill="#159c8e"></rect>
  <rect x="46" y="37" width="6" height="1" fill="#136b69"></rect>
  <rect x="52" y="37" width="2" height="1" fill="#202b30"></rect>
  <rect x="12" y="38" width="2" height="1" fill="#202b30"></rect>
  <rect x="14" y="38" width="2" height="1" fill="#38ccaf"></rect>
  <rect x="16" y="38" width="2" height="1" fill="#8cf1cd"></rect>
  <rect x="18" y="38" width="22" height="1" fill="#38ccaf"></rect>
  <rect x="40" y="38" width="2" height="1" fill="#159c8e"></rect>
  <rect x="42" y="38" width="8" height="1" fill="#136b69"></rect>
  <rect x="50" y="38" width="2" height="1" fill="#202b30"></rect>
  <rect x="12" y="39" width="2" height="1" fill="#202b30"></rect>
  <rect x="14" y="39" width="2" height="1" fill="#38ccaf"></rect>
  <rect x="16" y="39" width="2" height="1" fill="#8cf1cd"></rect>
  <rect x="18" y="39" width="22" height="1" fill="#38ccaf"></rect>
  <rect x="40" y="39" width="2" height="1" fill="#159c8e"></rect>
  <rect x="42" y="39" width="8" height="1" fill="#136b69"></rect>
  <rect x="50" y="39" width="2" height="1" fill="#202b30"></rect>
  <rect x="12" y="40" width="2" height="1" fill="#202b30"></rect>
  <rect x="14" y="40" width="2" height="1" fill="#38ccaf"></rect>
  <rect x="16" y="40" width="2" height="1" fill="#8cf1cd"></rect>
  <rect x="18" y="40" width="20" height="1" fill="#38ccaf"></rect>
  <rect x="38" y="40" width="4" height="1" fill="#159c8e"></rect>
  <rect x="42" y="40" width="8" height="1" fill="#136b69"></rect>
  <rect x="50" y="40" width="2" height="1" fill="#202b30"></rect>
  <rect x="12" y="41" width="2" height="1" fill="#202b30"></rect>
  <rect x="14" y="41" width="2" height="1" fill="#38ccaf"></rect>
  <rect x="16" y="41" width="2" height="1" fill="#8cf1cd"></rect>
  <rect x="18" y="41" width="20" height="1" fill="#38ccaf"></rect>
  <rect x="38" y="41" width="4" height="1" fill="#159c8e"></rect>
  <rect x="42" y="41" width="8" height="1" fill="#136b69"></rect>
  <rect x="50" y="41" width="2" height="1" fill="#202b30"></rect>
  <rect x="12" y="42" width="2" height="1" fill="#202b30"></rect>
  <rect x="14" y="42" width="2" height="1" fill="#38ccaf"></rect>
  <rect x="16" y="42" width="2" height="1" fill="#8cf1cd"></rect>
  <rect x="18" y="42" width="8" height="1" fill="#38ccaf"></rect>
  <rect x="26" y="42" width="12" height="1" fill="#159c8e"></rect>
  <rect x="38" y="42" width="8" height="1" fill="#136b69"></rect>
  <rect x="46" y="42" width="4" height="1" fill="#202b30"></rect>
  <rect x="12" y="43" width="2" height="1" fill="#202b30"></rect>
  <rect x="14" y="43" width="2" height="1" fill="#38ccaf"></rect>
  <rect x="16" y="43" width="2" height="1" fill="#8cf1cd"></rect>
  <rect x="18" y="43" width="8" height="1" fill="#38ccaf"></rect>
  <rect x="26" y="43" width="12" height="1" fill="#159c8e"></rect>
  <rect x="38" y="43" width="8" height="1" fill="#136b69"></rect>
  <rect x="46" y="43" width="4" height="1" fill="#202b30"></rect>
  <rect x="12" y="44" width="2" height="1" fill="#202b30"></rect>
  <rect x="14" y="44" width="2" height="1" fill="#38ccaf"></rect>
  <rect x="16" y="44" width="2" height="1" fill="#8cf1cd"></rect>
  <rect x="18" y="44" width="6" height="1" fill="#38ccaf"></rect>
  <rect x="24" y="44" width="2" height="1" fill="#159c8e"></rect>
  <rect x="26" y="44" width="20" height="1" fill="#136b69"></rect>
  <rect x="46" y="44" width="2" height="1" fill="#202b30"></rect>
  <rect x="12" y="45" width="2" height="1" fill="#202b30"></rect>
  <rect x="14" y="45" width="2" height="1" fill="#38ccaf"></rect>
  <rect x="16" y="45" width="2" height="1" fill="#8cf1cd"></rect>
  <rect x="18" y="45" width="6" height="1" fill="#38ccaf"></rect>
  <rect x="24" y="45" width="2" height="1" fill="#159c8e"></rect>
  <rect x="26" y="45" width="20" height="1" fill="#136b69"></rect>
  <rect x="46" y="45" width="2" height="1" fill="#202b30"></rect>
  <rect x="12" y="46" width="2" height="1" fill="#202b30"></rect>
  <rect x="14" y="46" width="2" height="1" fill="#38ccaf"></rect>
  <rect x="16" y="46" width="2" height="1" fill="#8cf1cd"></rect>
  <rect x="18" y="46" width="6" height="1" fill="#38ccaf"></rect>
  <rect x="24" y="46" width="2" height="1" fill="#159c8e"></rect>
  <rect x="26" y="46" width="16" height="1" fill="#136b69"></rect>
  <rect x="42" y="46" width="4" height="1" fill="#202b30"></rect>
  <rect x="12" y="47" width="2" height="1" fill="#202b30"></rect>
  <rect x="14" y="47" width="2" height="1" fill="#38ccaf"></rect>
  <rect x="16" y="47" width="2" height="1" fill="#8cf1cd"></rect>
  <rect x="18" y="47" width="6" height="1" fill="#38ccaf"></rect>
  <rect x="24" y="47" width="2" height="1" fill="#159c8e"></rect>
  <rect x="26" y="47" width="16" height="1" fill="#136b69"></rect>
  <rect x="42" y="47" width="4" height="1" fill="#202b30"></rect>
  <rect x="12" y="48" width="2" height="1" fill="#202b30"></rect>
  <rect x="14" y="48" width="10" height="1" fill="#38ccaf"></rect>
  <rect x="24" y="48" width="2" height="1" fill="#159c8e"></rect>
  <rect x="26" y="48" width="4" height="1" fill="#136b69"></rect>
  <rect x="30" y="48" width="12" height="1" fill="#202b30"></rect>
  <rect x="12" y="49" width="2" height="1" fill="#202b30"></rect>
  <rect x="14" y="49" width="10" height="1" fill="#38ccaf"></rect>
  <rect x="24" y="49" width="2" height="1" fill="#159c8e"></rect>
  <rect x="26" y="49" width="4" height="1" fill="#136b69"></rect>
  <rect x="30" y="49" width="12" height="1" fill="#202b30"></rect>
  <rect x="12" y="50" width="2" height="1" fill="#202b30"></rect>
  <rect x="14" y="50" width="12" height="1" fill="#159c8e"></rect>
  <rect x="26" y="50" width="4" height="1" fill="#136b69"></rect>
  <rect x="30" y="50" width="2" height="1" fill="#202b30"></rect>
  <rect x="12" y="51" width="2" height="1" fill="#202b30"></rect>
  <rect x="14" y="51" width="12" height="1" fill="#159c8e"></rect>
  <rect x="26" y="51" width="4" height="1" fill="#136b69"></rect>
  <rect x="30" y="51" width="2" height="1" fill="#202b30"></rect>
  <rect x="14" y="52" width="4" height="1" fill="#202b30"></rect>
  <rect x="18" y="52" width="12" height="1" fill="#136b69"></rect>
  <rect x="30" y="52" width="2" height="1" fill="#202b30"></rect>
  <rect x="14" y="53" width="4" height="1" fill="#202b30"></rect>
  <rect x="18" y="53" width="12" height="1" fill="#136b69"></rect>
  <rect x="30" y="53" width="2" height="1" fill="#202b30"></rect>
  <rect x="16" y="54" width="2" height="1" fill="#202b30"></rect>
  <rect x="18" y="54" width="12" height="1" fill="#136b69"></rect>
  <rect x="30" y="54" width="2" height="1" fill="#202b30"></rect>
  <rect x="16" y="55" width="2" height="1" fill="#202b30"></rect>
  <rect x="18" y="55" width="12" height="1" fill="#136b69"></rect>
  <rect x="30" y="55" width="2" height="1" fill="#202b30"></rect>
  <rect x="18" y="56" width="12" height="1" fill="#202b30"></rect>
  <rect x="18" y="57" width="12" height="1" fill="#202b30"></rect>
</svg>
